<svg width="120" height="61" viewBox="0 0 120 61" fill="none" xmlns="http://www.w3.org/2000/svg">
<path fill-rule="evenodd" clip-rule="evenodd" d="M63.0835 22.8521C62.08 22.008 60.3673 21.5865 57.9445 21.5865H52.48V38.4738H56.5661V33.1812H58.3964C60.618 33.1812 62.2471 32.6922 63.2838 31.7134C64.4516 30.6169 65.0392 29.1568 65.0392 27.334C65.0392 25.4438 64.387 23.9495 63.0835 22.8521ZM58.2949 29.3599H56.5661V25.4077H58.1192C60.0085 25.4077 60.9531 26.0704 60.9531 27.3957C60.9531 28.7039 60.0664 29.3599 58.2949 29.3599ZM72.0313 21.5856H67.7705V38.4729H76.9701V34.6508H72.0313V21.5856ZM85.3177 21.5856L78.625 38.4729H83.2124L84.0896 36.0179H89.905L90.707 38.4729H95.346L88.7005 21.5856H85.3177ZM85.2675 32.5992L87.0227 26.827L88.7506 32.5992H85.2675Z" fill="black" style="fill:black;fill-opacity:1;"/>
<path fill-rule="evenodd" clip-rule="evenodd" d="M97.4742 38.4729H101.736V21.5856H97.4742V38.4729ZM118.282 24.7508C117.744 23.9703 117.052 23.3072 116.25 22.8018C114.964 21.991 113.209 21.5866 110.986 21.5866H105.371V38.4729H111.939C114.312 38.4729 116.217 37.6973 117.654 36.1442C119.092 34.5919 119.809 32.5318 119.809 29.9657C119.809 27.9246 119.3 26.1862 118.282 24.7508ZM111.463 34.6499H109.633V25.4087H111.488C112.792 25.4087 113.793 25.817 114.496 26.6305C115.198 27.4442 115.549 28.5986 115.549 30.0929C115.549 33.1309 114.187 34.6499 111.463 34.6499ZM17.8832 7.40776L4.07274 11.0248L0.266718 24.9132L5.02685 29.8005L0.189819 34.6071L3.77179 48.5562L17.5224 52.3983L22.3604 47.5907L27.1205 52.4771L40.931 48.86L44.7361 34.9708L39.9768 30.0853L44.8139 25.2786L41.2319 11.3286L27.4794 7.48656L22.6433 12.2932L17.8832 7.40776ZM9.40821 13.6964L16.6832 11.79L19.8645 15.0558L15.2249 19.666L9.40821 13.6964ZM25.3785 15.0995L28.611 11.8878L35.8547 13.9119L29.943 19.7856L25.3785 15.0995ZM4.62527 23.7729L6.62938 16.4581L12.4443 22.4277L7.80568 27.0378L4.62527 23.7729ZM32.6762 22.5929L38.588 16.7172L40.4734 24.0653L37.2418 27.278L32.6762 22.5929ZM17.9591 22.4723L22.5987 17.8622L27.1623 22.5483L22.5237 27.1584L17.9591 22.4723ZM10.5408 29.8442L15.1794 25.2341L19.7458 29.9201L15.1053 34.5303L10.5408 29.8442ZM25.2588 29.9647L29.8974 25.3546L34.462 30.0407L29.8224 34.6508L25.2588 29.9647ZM4.52843 35.8195L7.76201 32.6058L12.3256 37.2929L6.41577 43.1657L4.52843 35.8195ZM17.8395 37.3366L22.4791 32.7265L27.0436 37.4125L22.405 42.0227L17.8395 37.3366ZM32.5566 37.4581L37.1962 32.848L40.3775 36.1128L38.3743 43.4277L32.5566 37.4581ZM9.14899 45.9739L15.0598 40.0983L19.6262 44.7843L16.3927 47.998L9.14899 45.9739ZM25.1392 44.829L29.7778 40.2189L35.5937 46.1894L28.3196 48.0948L25.1392 44.829Z" fill="black" style="fill:black;fill-opacity:1;"/>
</svg>
