<svg width="121" height="53" viewBox="0 0 121 53" fill="none" xmlns="http://www.w3.org/2000/svg">
<g clip-path="url(#clip0_4006_1465)">
<path d="M0.333313 28.1756C0.333313 19.3758 7.26397 13.1017 17.1205 13.1017C20.046 13.1017 23.2389 13.6467 25.03 14.4591V19.9545H24.8295L17.9767 15.0488C17.6231 14.9261 16.8854 14.8468 16.186 14.8468C11.0018 14.8468 7.34143 19.6764 7.34143 26.3402C7.34143 33.7826 11.9027 39.5781 17.6987 39.5781C18.0913 39.5716 18.4825 39.5307 18.868 39.456L18.7564 39.4098V27.0521L16.9989 24.9049V24.7048H27.2436V24.9049L25.486 27.0521V41.4252H25.2859L20.8468 40.0568C19.134 40.9134 16.4862 41.5363 14.1057 41.5363C5.94028 41.5363 0.333313 36.1184 0.333313 28.1756ZM31.9828 24.4042L29.9136 22.3354V22.1777L37.2781 20.2325H37.6673L37.9439 24.4042H38.1772C39.8573 21.4451 41.3368 20.2325 43.2055 20.2325C43.9843 20.2325 44.6519 20.4662 44.9968 20.7779V27.0852H44.7967L40.8606 24.4369C40.7436 24.4123 40.6242 24.401 40.5046 24.4032C39.6927 24.4032 38.5244 25.182 38.1352 26.1165V38.888L40.1925 40.7585V40.9586H30.2253V40.7585L31.9828 38.8893V24.4042ZM46.6672 40.9466V40.7907L48.4248 38.8773V24.4042L46.356 22.3797V22.1777L54.1876 20.2307H54.5767V38.8884L56.3347 40.8018V40.9577H46.6672V40.9466ZM48.1453 14.0474C48.1453 12.134 49.4363 10.9656 51.4941 10.9656C53.5518 10.9656 54.8422 12.134 54.8422 14.0474C54.8422 15.9165 53.5633 17.0844 51.4941 17.0844C49.4248 17.0844 48.1453 15.9165 48.1453 14.0474ZM59.1937 40.9466V40.7465L60.9513 38.8773V23.0362H58.1812V22.8804L60.9843 20.4662C61.8411 14.815 65.3121 10.9656 69.5505 10.9656C70.6071 10.9656 71.8557 11.1994 72.3537 11.4774L71.7309 16.5837H71.5305L65.9577 14.1253C64.7451 14.2475 63.6981 16.2277 63.6981 18.0189C63.6981 20.3215 65.4561 21.6009 68.4471 21.6009H73.6311C73.9431 15.6071 77.2911 10.9656 81.4629 10.9656C82.4421 10.9656 83.6103 11.1994 84.1551 11.4774L83.4879 16.5394H83.2875L78.3387 14.2013C77.2041 14.3125 76.3143 15.9921 76.3143 17.8281C76.3143 20.3178 77.9499 21.6087 81.1095 21.6087H93.0243L92.7117 23.8375V38.9603L94.4697 40.7958V40.9517H84.7803V40.7958L86.5713 38.8824V23.0362H79.7517V38.8884L82.0881 40.7585V40.9586H71.8065V40.7585L73.5975 38.8451V23.0362H67.0923V38.8884L69.4281 40.7585V40.9586H59.1928L59.1937 40.9466ZM86.3043 14.0474C86.3043 12.134 87.5835 10.9656 89.6529 10.9656C91.7553 10.9656 93.0459 12.134 93.0459 14.0474C93.0459 15.9165 91.7547 17.0844 89.6529 17.0844C87.5835 17.0844 86.3043 15.9165 86.3043 14.0474ZM105.261 38.8884L107.018 40.7585V40.9586H97.3509V40.7585L99.1089 38.8893V24.412L97.0395 22.3432V22.1427L104.404 20.2293H104.793L105.07 23.8892H105.337C107.472 21.4308 109.775 20.2293 112.345 20.2293C115.816 20.2293 118.23 22.4885 118.23 25.6804V38.8852L119.988 40.7543V40.9544H110.287V40.7543L112.078 38.763V26.9049C112.078 24.9915 110.91 23.8237 109.041 23.8237C107.796 23.8237 106.551 24.3239 105.26 25.3364L105.261 38.8884Z" fill="black" style="fill:black;fill-opacity:1;"/>
</g>
<defs>
<clipPath id="clip0_4006_1465">
<rect width="120" height="52" fill="white" style="fill:white;fill-opacity:1;" transform="translate(0.333313 0.5)"/>
</clipPath>
</defs>
</svg>
