<svg width="140" height="21" viewBox="0 0 140 21" fill="none" xmlns="http://www.w3.org/2000/svg">
<path d="M135.739 1.19243H140V19.7406H135.521L128.857 7.81284V19.7406H124.569V1.19243H129.048L135.739 13.257V1.19243ZM107.69 0.700001C113.835 0.700001 117.468 5.35072 117.468 10.4392C117.468 15.5275 113.808 20.1783 107.69 20.1783C101.518 20.1783 97.8852 15.5275 97.8852 10.4392C97.8852 5.37807 101.545 0.700001 107.69 0.700001ZM113.126 10.4665C113.126 7.42985 111.049 4.58471 107.717 4.58471C104.331 4.58471 102.31 7.42985 102.31 10.4665C102.31 13.5031 104.358 16.3483 107.717 16.3483C111.049 16.3209 113.126 13.5031 113.126 10.4665ZM38.5369 4.88564V1.19243H51.2095V4.88564H47.0035V19.7132H42.7155V4.88564H38.5369ZM83.9293 8.85241H90.9482V12.2174H83.9566V16.2936H90.9482V19.7406H79.6684V1.19243H90.9482V4.63943H83.9566V8.85241H83.9293ZM65.6301 1.19243C69.7269 1.19243 72.3758 4.28378 72.3758 7.89495C72.3758 10.4938 71.0108 12.7919 68.689 13.8861L72.4031 19.7406H67.4327L64.1553 14.5975H62.1342V19.7406H57.8462V1.19243H65.6301ZM68.0336 7.89495C68.0336 6.17142 66.8592 4.69414 65.0839 4.69414H62.1615V11.0957H65.0839C66.8865 11.0957 68.0336 9.61842 68.0336 7.89495ZM30.1522 17.4699H23.5701L22.8599 19.7132H18.2988L24.9083 1.16507H28.8412L35.5326 19.7132H30.8896L30.1522 17.4699ZM26.8748 6.47236L24.6079 14.105H29.1143L26.8748 6.47236ZM7.75656 1.19243C11.8533 1.19243 14.5025 4.28378 14.5025 7.89495C14.5025 11.506 11.8533 14.5975 7.75656 14.5975H4.28794V19.7406H0V1.19243H7.75656ZM10.1873 7.89495C10.1873 6.17142 9.01285 4.69414 7.23758 4.69414H4.28794V11.0957H7.21028C9.01285 11.0957 10.1873 9.61842 10.1873 7.89495Z" fill="black" style="fill:black;fill-opacity:1;"/>
</svg>
