<svg width="94" height="93" viewBox="0 0 94 93" fill="none" xmlns="http://www.w3.org/2000/svg">
<rect width="94" height="93" rx="24" fill="url(#paint0_linear_4006_1393)" style=""/>
<path fill-rule="evenodd" clip-rule="evenodd" d="M47.9812 20.1996C47.3348 20.0667 46.668 20.0667 46.0216 20.1996C45.2744 20.3533 44.6065 20.7274 44.0755 21.0248L43.9308 21.1056L25.9353 31.1031C25.8856 31.1308 25.8343 31.159 25.7818 31.188C25.2197 31.4975 24.513 31.8868 23.9702 32.4757C23.501 32.9849 23.1459 33.5884 22.9287 34.2459C22.6774 35.0063 22.6804 35.8131 22.6827 36.4548C22.6829 36.5148 22.6832 36.5733 22.6832 36.6302V56.3696C22.6832 56.4265 22.6829 56.485 22.6827 56.545C22.6804 57.1867 22.6774 57.9935 22.9287 58.754C23.1459 59.4114 23.501 60.0149 23.9702 60.5241C24.513 61.113 25.2197 61.5023 25.7818 61.8119C25.8343 61.8408 25.8856 61.869 25.9353 61.8967L43.9308 71.8942L44.0756 71.975C44.6065 72.2724 45.2744 72.6465 46.0216 72.8002C46.668 72.9331 47.3348 72.9331 47.9812 72.8002C48.7284 72.6465 49.3963 72.2724 49.9273 71.975L50.072 71.8942L68.0675 61.8967C68.0895 61.8845 68.1118 61.8721 68.1344 61.8597C68.1628 61.8439 68.1917 61.828 68.221 61.8119C68.7831 61.5023 69.4898 61.113 70.0326 60.5241C70.5018 60.0149 70.8569 59.4114 71.0741 58.754C71.3254 57.9935 71.3224 57.1867 71.3201 56.545C71.3199 56.485 71.3197 56.4265 71.3197 56.3696V36.6302C71.3197 36.5733 71.3199 36.5148 71.3201 36.4548C71.3224 35.8131 71.3254 35.0063 71.0741 34.2458C70.8569 33.5884 70.5018 32.9849 70.0326 32.4757C69.4898 31.8868 68.7831 31.4975 68.221 31.1879L68.2191 31.1869C68.1672 31.1583 68.1166 31.1304 68.0675 31.1031L50.072 21.1056L49.9273 21.0248C49.3963 20.7274 48.7284 20.3533 47.9812 20.1996ZM46.2928 25.3572C46.6613 25.1525 46.8494 25.049 46.9898 24.9814L47.0014 24.9758L47.013 24.9814C47.1534 25.049 47.3415 25.1525 47.71 25.3572L63.8803 34.3407L47.0013 43.7179L30.1224 34.3408L46.2928 25.3572ZM27.5468 38.4737L44.5695 47.9307L44.5696 66.6852L28.2973 57.6451C27.9083 57.429 27.7097 57.3175 27.5704 57.2287L27.5586 57.2212L27.5578 57.2072C27.5478 57.0423 27.5468 56.8146 27.5468 56.3696V38.4737Z" fill="white" style="fill:white;fill-opacity:1;"/>
<defs>
<linearGradient id="paint0_linear_4006_1393" x1="54.8753" y1="131.708" x2="-38.1194" y2="37.7138" gradientUnits="userSpaceOnUse">
<stop stop-color="#FB432C" style="stop-color:#FB432C;stop-color:color(display-p3 0.9843 0.2627 0.1725);stop-opacity:1;"/>
<stop offset="1" stop-color="#FF591E" style="stop-color:#FF591E;stop-color:color(display-p3 1.0000 0.3490 0.1176);stop-opacity:1;"/>
</linearGradient>
</defs>
</svg>
