<svg width="721" height="685" viewBox="0 0 721 685" fill="none" xmlns="http://www.w3.org/2000/svg">
<path fill-rule="evenodd" clip-rule="evenodd" d="M720.789 1.38017C720.792 1.37655 720.793 1.37383 720.017 0.906502C719.241 0.439168 719.241 0.440072 719.239 0.443695L719.23 0.458192L719.194 0.517064C719.162 0.570499 719.114 0.650186 719.049 0.755245C718.92 0.96718 718.726 1.28237 718.467 1.69989C717.951 2.53493 717.175 3.7748 716.144 5.39417C714.083 8.63108 710.998 13.3814 706.911 19.4295C698.736 31.525 686.549 48.8091 670.509 69.5529C638.427 111.041 590.936 166.357 529.301 221.673C406.021 332.311 226.228 442.881 0.0195312 442.881V444.692C226.843 444.692 407.05 333.822 530.511 223.02C592.245 167.616 639.81 112.213 671.942 70.6605C688.008 49.8841 700.217 32.5683 708.412 20.4439C712.509 14.3813 715.602 9.61736 717.672 6.36688C718.707 4.74208 719.487 3.49495 720.007 2.65356C720.268 2.23333 720.464 1.91454 720.595 1.69989C720.66 1.59211 720.71 1.5115 720.742 1.45716L720.78 1.39557L720.789 1.38017ZM720.703 134.634C720.705 134.631 720.707 134.63 720.017 134.042C719.328 133.455 719.327 133.456 719.325 133.458L719.317 133.468L719.281 133.51L719.218 133.583L719.136 133.677C719.081 133.742 719.015 133.819 718.936 133.909L718.81 134.054C718.734 134.142 718.649 134.239 718.556 134.345C718.04 134.934 717.265 135.811 716.235 136.956C714.175 139.244 711.092 142.605 707.006 146.882C698.834 155.437 686.651 167.664 670.614 182.338C638.539 211.687 591.053 250.824 529.421 289.961C406.153 368.237 226.321 446.503 0.0195312 446.503V448.315C226.752 448.315 406.918 369.898 530.391 291.49C592.128 252.287 639.698 213.081 671.837 183.674C687.906 168.97 700.119 156.715 708.316 148.133C712.415 143.842 715.51 140.469 717.582 138.168C718.617 137.016 719.397 136.133 719.919 135.538C720.18 135.24 720.376 135.013 720.507 134.861C720.573 134.785 720.623 134.728 720.656 134.689L720.693 134.645L720.703 134.634ZM720.017 226.422C720.6 227.115 720.599 227.117 720.597 227.119L720.587 227.127L720.549 227.158L720.451 227.24L720.4 227.282C720.269 227.391 720.072 227.553 719.811 227.767C719.289 228.195 718.509 228.828 717.473 229.654C715.4 231.304 712.304 233.722 708.205 236.798C700.006 242.95 687.792 251.735 671.722 262.275C639.582 283.354 592.013 311.454 530.281 339.551C406.815 395.747 226.688 451.938 0.0195312 451.938V450.126C226.384 450.126 406.256 394.012 529.53 337.903C591.168 309.848 638.656 281.795 670.729 260.76C686.765 250.242 698.947 241.48 707.118 235.349C711.203 232.284 714.285 229.876 716.344 228.236C717.374 227.417 718.148 226.788 718.664 226.366C718.774 226.275 718.873 226.194 718.96 226.122C719.076 226.027 719.17 225.949 719.243 225.888C719.308 225.835 719.356 225.794 719.388 225.768L719.423 225.738L719.432 225.731C719.432 225.731 719.433 225.73 719.451 225.751C719.459 225.761 719.472 225.775 719.49 225.797C719.524 225.837 719.578 225.9 719.664 226.003L720.017 226.422ZM720.404 327.772C720.404 327.772 720.405 327.772 720.404 327.77C720.404 327.768 720.402 327.765 720.399 327.756C720.392 327.741 720.378 327.71 720.348 327.647C720.297 327.538 720.2 327.334 720.017 326.953C719.841 326.584 719.744 326.382 719.69 326.271C719.665 326.219 719.65 326.188 719.64 326.168C719.631 326.149 719.627 326.142 719.625 326.139C719.624 326.137 719.624 326.137 719.624 326.137L719.615 326.142L719.58 326.159L719.435 326.227C719.307 326.287 719.113 326.378 718.855 326.498C718.339 326.738 717.565 327.096 716.535 327.563C714.475 328.495 711.392 329.864 707.306 331.607C699.134 335.094 686.949 340.077 670.909 346.058C638.83 358.02 591.331 373.973 529.679 389.927C406.373 421.835 226.451 453.749 0.0195312 453.749V455.56C226.621 455.56 406.698 423.623 530.132 391.681C591.85 375.71 639.408 359.737 671.542 347.755C687.609 341.764 699.82 336.771 708.017 333.274C712.115 331.525 715.21 330.15 717.282 329.213C718.318 328.744 719.098 328.383 719.62 328.14C719.881 328.019 720.077 327.927 720.209 327.865L720.357 327.794L720.395 327.776L720.404 327.772ZM720.017 407.559C720.14 408.207 720.173 408.383 720.181 408.431C720.184 408.449 720.183 408.449 720.183 408.449L720.173 408.451L720.136 408.458L719.989 408.486C719.858 408.511 719.662 408.547 719.402 408.595L719.158 408.64L718.858 408.696C718.693 408.726 718.511 408.759 718.315 408.794C717.952 408.861 717.536 408.936 717.069 409.02C715 409.392 711.908 409.937 707.813 410.631C699.622 412.02 687.418 414.001 671.358 416.38C639.239 421.136 591.697 427.478 529.998 433.819C406.6 446.502 226.57 459.183 0.0195312 459.183V457.372C226.503 457.372 406.47 444.694 529.813 432.017C591.484 425.679 638.999 419.341 671.093 414.588C687.14 412.212 699.331 410.232 707.51 408.845C711.599 408.152 714.685 407.608 716.748 407.238C717.78 407.052 718.555 406.91 719.073 406.814C719.332 406.767 719.526 406.73 719.655 406.706L719.8 406.679L719.836 406.671L719.845 406.67C719.845 406.67 719.846 406.67 719.85 406.687C719.854 406.704 719.86 406.737 719.873 406.801L719.9 406.944C719.925 407.075 719.962 407.271 720.017 407.559ZM720.007 456.466C720.009 456.466 720.01 456.466 720.017 457.372C720.024 458.277 720.023 458.277 720.021 458.277H720.012H719.997L719.975 458.278H719.948H719.914H719.875L719.829 458.279H719.777L719.719 458.28H719.655L719.585 458.281H719.509L719.427 458.282L719.339 458.283L719.244 458.284H719.144L719.038 458.285L718.925 458.286L718.807 458.286L718.682 458.287L718.552 458.288L718.415 458.29L718.273 458.291L718.124 458.292L717.969 458.293L717.809 458.295L717.642 458.295L717.469 458.296L717.291 458.298L717.106 458.299L716.915 458.301L716.719 458.303L716.516 458.304L716.307 458.305L716.093 458.307L715.872 458.309L715.645 458.311L715.413 458.313L715.174 458.315L714.93 458.316L714.679 458.318L714.423 458.32L714.161 458.322L713.892 458.324L713.618 458.325L713.338 458.328L713.052 458.33L712.759 458.333L712.461 458.334L712.157 458.337L711.848 458.339L711.532 458.342L711.21 458.344L710.882 458.346L710.549 458.349L710.209 458.352L709.864 458.354L709.513 458.357L709.156 458.36L708.793 458.363L708.424 458.365L708.049 458.368L707.668 458.371L707.281 458.373L706.889 458.377L706.491 458.38L706.086 458.382L705.676 458.386L705.26 458.389L704.839 458.392L704.411 458.395L703.978 458.399L703.538 458.402L703.093 458.405L702.642 458.409L702.185 458.412L701.722 458.416L701.254 458.42L700.78 458.422L700.299 458.426L699.813 458.43L699.322 458.434L698.824 458.438L698.321 458.441L697.811 458.445L697.296 458.449L696.776 458.453L696.249 458.457L695.716 458.461L695.178 458.465L694.634 458.469L694.085 458.473L693.529 458.478L692.968 458.482L692.401 458.486L691.828 458.49L691.249 458.495L690.665 458.499L690.075 458.504L689.479 458.508L688.878 458.513L688.27 458.517L687.657 458.522L687.038 458.526L686.414 458.531L685.784 458.535L685.148 458.541L684.506 458.545L683.859 458.551L683.206 458.555L682.547 458.56L681.882 458.565L681.212 458.571L680.536 458.575L679.854 458.581L679.167 458.586L678.474 458.591L677.775 458.596L677.071 458.602L676.361 458.607L675.645 458.612L674.924 458.618L674.197 458.623L673.464 458.629L672.726 458.634L671.982 458.64L671.232 458.646L670.477 458.651L669.716 458.657L668.949 458.663L668.177 458.669L667.399 458.675L666.616 458.68L665.827 458.687L665.032 458.692L664.231 458.699L663.425 458.705L662.614 458.711L661.797 458.717L660.974 458.723L660.145 458.729L659.311 458.736L658.472 458.742L657.627 458.748L656.776 458.755L655.919 458.761L655.058 458.768L654.19 458.775L653.317 458.781L652.438 458.787L651.554 458.795L650.664 458.801L649.769 458.808L648.868 458.814L647.962 458.822L647.05 458.828L646.132 458.835L645.209 458.843L644.281 458.849L643.346 458.856L642.407 458.863L641.461 458.871L640.511 458.878L639.555 458.885L638.593 458.892L637.626 458.9L636.653 458.907L635.675 458.914L634.691 458.921L633.702 458.929L632.707 458.937L631.707 458.944L630.701 458.951L629.689 458.959L628.673 458.967L627.651 458.975L626.623 458.982L625.59 458.99L624.552 458.998L623.507 459.006L622.458 459.014L621.404 459.022L620.343 459.03L619.277 459.038L618.206 459.046L617.129 459.054L616.047 459.063L614.96 459.071L613.867 459.079L612.768 459.087L611.664 459.095L610.555 459.103L609.441 459.112L608.32 459.121L607.195 459.129L606.064 459.138L604.928 459.146L603.786 459.155L602.639 459.163L601.486 459.172L600.329 459.181L599.165 459.189L597.997 459.198L596.823 459.208L595.644 459.217L594.459 459.226L593.269 459.234L592.074 459.243L590.873 459.252L589.667 459.261L588.456 459.271L587.239 459.28L586.017 459.289L584.789 459.298L583.556 459.307L582.318 459.317L581.075 459.326L579.826 459.335L578.571 459.345L577.313 459.354L576.047 459.364L574.778 459.374L573.503 459.383L572.222 459.393L570.936 459.403L569.644 459.412L568.347 459.422L567.046 459.432L565.739 459.442L564.427 459.452L563.109 459.462L561.786 459.472L560.458 459.482L559.124 459.492L557.786 459.502L556.442 459.512L555.092 459.523L553.738 459.533L552.378 459.543L551.013 459.553L549.643 459.563L548.268 459.573L546.887 459.584L545.501 459.594L544.11 459.605L542.714 459.616L541.313 459.626L539.905 459.637L538.493 459.648L537.076 459.659L535.654 459.669L534.227 459.679L532.794 459.69L531.356 459.701L529.912 459.712L528.464 459.723L527.011 459.735L525.552 459.745L524.088 459.756L522.619 459.767L521.145 459.778L519.666 459.79L518.181 459.801L516.692 459.813L515.196 459.823L513.697 459.835L512.191 459.846L510.681 459.858L509.166 459.869L507.645 459.88L506.12 459.892L504.588 459.903L503.053 459.915L501.512 459.927L499.966 459.938L498.414 459.95L496.858 459.962L495.296 459.974L493.729 459.985L492.158 459.997L490.581 460.009L488.999 460.021L487.413 460.034L485.82 460.045L484.224 460.057L482.622 460.069L481.014 460.082L479.402 460.093L477.784 460.106L476.162 460.118L474.534 460.13L472.902 460.142L471.264 460.155L469.622 460.168L467.973 460.18L466.321 460.192L464.663 460.205L463.001 460.217L461.332 460.23L459.66 460.243L457.981 460.255L456.299 460.268L454.611 460.281L452.918 460.293L451.22 460.306L449.517 460.319L447.809 460.332L446.096 460.345L444.378 460.358L442.655 460.371L440.927 460.384L439.194 460.397L437.456 460.41L435.714 460.423L433.966 460.437L432.213 460.45L430.456 460.463L428.692 460.476L426.925 460.49L425.152 460.503L423.374 460.516L421.592 460.53L419.804 460.543L418.012 460.557L416.215 460.571L414.413 460.584L412.605 460.598L410.793 460.611L408.976 460.625L407.154 460.638L405.327 460.653L403.496 460.667L401.659 460.68L399.817 460.695L397.971 460.708L396.12 460.722L394.263 460.736L392.402 460.75L390.536 460.764L388.665 460.778L386.789 460.792L384.908 460.807L383.023 460.821L381.133 460.835L379.237 460.85L377.337 460.864L375.433 460.879L373.523 460.893L371.608 460.907L369.688 460.922L367.763 460.936L365.834 460.951L363.901 460.965L361.962 460.98L360.018 460.994L358.069 461.009L356.116 461.024L354.158 461.039L352.195 461.053L350.227 461.069L348.255 461.083L346.278 461.099L344.295 461.113L342.308 461.128L340.317 461.143L338.32 461.158L336.318 461.174L334.312 461.188L332.302 461.204L330.286 461.219L328.265 461.234L326.24 461.25L324.21 461.265L322.175 461.281L320.136 461.296L318.092 461.311L316.042 461.327L313.989 461.342L311.931 461.358L309.867 461.373L307.799 461.388L305.727 461.405L303.649 461.42L301.567 461.436L299.48 461.452L297.388 461.467L295.293 461.484L293.192 461.499L291.086 461.515L288.976 461.531L286.86 461.547L284.741 461.563L282.616 461.579L280.487 461.595L278.353 461.611L276.215 461.628L274.072 461.643L271.924 461.659L269.771 461.676L267.614 461.692L265.452 461.708L263.286 461.724L261.115 461.741L258.94 461.757L256.759 461.774L254.573 461.791L252.384 461.807L250.19 461.823L247.99 461.84L245.787 461.857L243.579 461.874L241.366 461.89L239.148 461.906L236.927 461.924L234.7 461.94L232.468 461.957L230.233 461.974L227.992 461.991L225.747 462.008L223.498 462.025L221.243 462.042L218.985 462.059L216.721 462.076L214.453 462.093L212.181 462.11L209.903 462.127L207.622 462.145L205.336 462.162L203.044 462.179L200.749 462.196L198.449 462.214L196.144 462.232L193.836 462.249L191.522 462.266L189.204 462.284L186.881 462.301L184.554 462.319L182.222 462.337L179.886 462.354L177.546 462.372L175.2 462.389L172.851 462.407L170.496 462.425L168.138 462.443L165.774 462.461L163.406 462.479L161.034 462.496L158.657 462.514L156.276 462.532L153.89 462.55L151.5 462.569L149.105 462.587L146.706 462.605L144.302 462.623L141.894 462.641L139.482 462.659L137.064 462.677L134.644 462.695L132.217 462.714L129.787 462.732L127.352 462.751L124.913 462.769L122.469 462.788L120.021 462.806L117.568 462.825L115.111 462.843L112.651 462.862L110.185 462.88L107.714 462.899L105.24 462.917L102.761 462.936L100.277 462.955L97.7888 462.973L95.2974 462.992L92.8005 463.011L90.2991 463.03L87.794 463.049L85.2844 463.068L82.7703 463.087L80.2517 463.107L77.7285 463.126L75.2008 463.145L72.6696 463.164L70.1337 463.183L67.5933 463.202L65.0484 463.221L62.499 463.241L59.9459 463.26L57.3884 463.279L54.8262 463.298L52.2596 463.318L49.6893 463.337L47.1136 463.356L44.5344 463.375L41.9506 463.395L39.3631 463.414L36.7701 463.434L34.1736 463.454L31.5726 463.473L28.9679 463.493L26.3578 463.513L23.7441 463.532L21.1259 463.552L18.5031 463.572L15.8767 463.592L13.2457 463.612L10.6103 463.632L7.97119 463.652L5.32666 463.672L2.67847 463.692L0.0267334 463.711L0.0131226 461.9L2.66492 461.88L5.31311 461.86L7.95758 461.84L10.5967 461.82L13.2321 461.801L15.8631 461.781L18.4894 461.761L21.1122 461.741L23.7305 461.722L26.3442 461.702L28.9534 461.682L31.559 461.662L34.1601 461.643L36.7566 461.623L39.3495 461.603L41.937 461.584L44.5208 461.564L47.1001 461.545L49.6758 461.525L52.246 461.506L54.8126 461.487L57.3748 461.467L59.9323 461.448L62.4854 461.429L65.0349 461.409L67.5797 461.39L70.1201 461.371L72.6559 461.352L75.1873 461.333L77.7149 461.314L80.2381 461.295L82.7567 461.276L85.2709 461.257L87.7804 461.238L90.2855 461.219L92.7869 461.2L95.2838 461.181L97.7753 461.162L100.263 461.144L102.746 461.125L105.226 461.106L107.7 461.088L110.171 461.069L112.636 461.051L115.098 461.032L117.555 461.013L120.007 460.994L122.455 460.976L124.9 460.957L127.339 460.939L129.773 460.921L132.204 460.903L134.63 460.884L137.051 460.866L139.468 460.848L141.881 460.83L144.289 460.811L146.693 460.793L149.092 460.775L151.486 460.757L153.876 460.739L156.263 460.721L158.644 460.703L161.02 460.685L163.393 460.667L165.76 460.649L168.124 460.631L170.482 460.614L172.837 460.596L175.186 460.578L177.532 460.561L179.872 460.543L182.209 460.525L184.54 460.507L186.867 460.49L189.19 460.473L191.508 460.455L193.822 460.437L196.13 460.42L198.435 460.403L200.735 460.385L203.031 460.368L205.321 460.35L207.608 460.333L209.889 460.316L212.167 460.299L214.439 460.282L216.707 460.264L218.97 460.248L221.23 460.231L223.484 460.214L225.734 460.197L227.979 460.179L230.219 460.163L232.455 460.146L234.686 460.13L236.913 460.112L239.135 460.095L241.353 460.079L243.565 460.062L245.773 460.045L247.977 460.029L250.176 460.012L252.37 459.995L254.56 459.979L256.745 459.963L258.925 459.947L261.101 459.929L263.272 459.913L265.439 459.897L267.6 459.88L269.758 459.864L271.91 459.848L274.058 459.832L276.201 459.816L278.34 459.8L280.473 459.784L282.603 459.767L284.727 459.752L286.847 459.736L288.962 459.719L291.072 459.704L293.178 459.688L295.279 459.672L297.375 459.656L299.467 459.64L301.554 459.624L303.636 459.609L305.713 459.593L307.785 459.577L309.854 459.562L311.917 459.546L313.976 459.531L316.029 459.515L318.078 459.5L320.122 459.485L322.162 459.469L324.197 459.454L326.226 459.438L328.251 459.423L330.272 459.408L332.288 459.392L334.298 459.377L336.305 459.362L338.306 459.347L340.303 459.332L342.295 459.317L344.282 459.302L346.263 459.287L348.241 459.272L350.214 459.257L352.182 459.242L354.144 459.227L356.102 459.213L358.056 459.198L360.005 459.183L361.948 459.169L363.887 459.154L365.821 459.14L367.75 459.125L369.674 459.111L371.594 459.096L373.509 459.082L375.419 459.067L377.324 459.053L379.224 459.038L381.119 459.024L383.009 459.01L384.895 458.996L386.776 458.981L388.652 458.967L390.523 458.953L392.388 458.939L394.249 458.925L396.106 458.91L397.957 458.897L399.804 458.883L401.645 458.869L403.482 458.855L405.314 458.842L407.141 458.827L408.963 458.814L410.779 458.8L412.592 458.786L414.399 458.773L416.202 458.759L417.998 458.746L419.791 458.732L421.578 458.718L423.361 458.705L425.139 458.691L426.911 458.679L428.679 458.665L430.441 458.651L432.199 458.639L433.953 458.625L435.7 458.612L437.443 458.599L439.181 458.585L440.913 458.573L442.641 458.56L444.365 458.546L446.083 458.534L447.795 458.521L449.504 458.507L451.206 458.495L452.904 458.482L454.597 458.469L456.285 458.457L457.968 458.444L459.646 458.431L461.319 458.419L462.987 458.406L464.65 458.393L466.307 458.381L467.96 458.369L469.607 458.356L471.25 458.344L472.888 458.332L474.52 458.319L476.148 458.306L477.771 458.295L479.388 458.282L481 458.27L482.607 458.258L484.21 458.246L485.807 458.234L487.399 458.222L488.986 458.209L490.568 458.198L492.145 458.186L493.716 458.174L495.283 458.162L496.844 458.151L498.401 458.139L499.952 458.127L501.498 458.115L503.039 458.104L504.575 458.092L506.106 458.081L507.631 458.069L509.152 458.057L510.667 458.046L512.178 458.035L513.683 458.024L515.183 458.012L516.678 458.001L518.168 457.989L519.652 457.979L521.131 457.968L522.605 457.956L524.074 457.945L525.538 457.934L526.997 457.923L528.451 457.912L529.899 457.901L531.342 457.89L532.78 457.879L534.212 457.868L535.641 457.858L537.062 457.847L538.48 457.836L539.892 457.825L541.298 457.815L542.7 457.805L544.097 457.794L545.488 457.784L546.873 457.773L548.255 457.762L549.629 457.752L551 457.742L552.364 457.731L553.725 457.721L555.079 457.711L556.428 457.7L557.772 457.69L559.111 457.681L560.444 457.671L561.772 457.661L563.096 457.651L564.413 457.641L565.726 457.631L567.032 457.621L568.334 457.611L569.631 457.601L570.922 457.592L572.208 457.582L573.489 457.572L574.764 457.563L576.034 457.553L577.299 457.543L578.558 457.534L579.812 457.525L581.061 457.515L582.305 457.506L583.543 457.496L584.775 457.487L586.002 457.478L587.225 457.469L588.441 457.46L589.653 457.45L590.859 457.441L592.06 457.431L593.256 457.422L594.446 457.414L595.63 457.405L596.81 457.396L597.983 457.387L599.152 457.378L600.315 457.37L601.473 457.361L602.626 457.352L603.772 457.344L604.914 457.335L606.05 457.326L607.181 457.317L608.307 457.309L609.426 457.301L610.541 457.292L611.651 457.284L612.755 457.276L613.853 457.268L614.945 457.259L616.033 457.251L617.115 457.243L618.192 457.235L619.264 457.227L620.329 457.219L621.39 457.21L622.444 457.202L623.494 457.194L624.538 457.187L625.577 457.179L626.609 457.172L627.637 457.163L628.66 457.155L629.676 457.148L630.687 457.141L631.693 457.133L632.693 457.125L633.688 457.118L634.677 457.11L635.661 457.103L636.639 457.095L637.612 457.088L638.579 457.081L639.541 457.074L640.497 457.066L641.448 457.059L642.393 457.052L643.333 457.045L644.267 457.038L645.195 457.031L646.118 457.024L647.036 457.017L647.948 457.01L648.854 457.003L649.755 456.997L650.651 456.99L651.54 456.983L652.425 456.976L653.303 456.97L654.176 456.963L655.044 456.957L655.906 456.95L656.762 456.943L657.613 456.937L658.458 456.931L659.298 456.924L660.132 456.918L660.96 456.912L661.783 456.905L662.6 456.9L663.412 456.893L664.218 456.887L665.018 456.881L665.813 456.875L666.602 456.869L667.386 456.864L668.163 456.857L668.936 456.852L669.702 456.845L670.463 456.84L671.218 456.835L671.968 456.829L672.712 456.823L673.451 456.817L674.183 456.812L674.91 456.807L675.632 456.801L676.347 456.796L677.057 456.79L677.762 456.785L678.46 456.779L679.153 456.775L679.841 456.769L680.522 456.764L681.198 456.759L681.869 456.754L682.533 456.749L683.192 456.744L683.845 456.74L684.492 456.734L685.134 456.73L685.77 456.725L686.4 456.72L687.025 456.715L687.644 456.711L688.257 456.706L688.864 456.702L689.466 456.697L690.061 456.692L690.652 456.688L691.236 456.683L691.814 456.679L692.387 456.674L692.954 456.671L693.515 456.666L694.071 456.662L694.621 456.658L695.165 456.653L695.703 456.65L696.235 456.645L696.762 456.642L697.283 456.638L697.798 456.634L698.307 456.63L698.81 456.626L699.308 456.623L699.8 456.619L700.286 456.615L700.766 456.612L701.24 456.608L701.709 456.605L702.171 456.601L702.628 456.597L703.079 456.594L703.525 456.591L703.964 456.587L704.397 456.584L704.825 456.581L705.247 456.577L705.663 456.575L706.073 456.571L706.477 456.568L706.875 456.566L707.268 456.562L707.654 456.559L708.035 456.557L708.41 456.554L708.779 456.551L709.142 456.548L709.499 456.546L709.85 456.543L710.196 456.54L710.535 456.538L710.869 456.535L711.196 456.533L711.518 456.53L711.834 456.528L712.144 456.526L712.448 456.523L712.746 456.521L713.038 456.519L713.324 456.517L713.604 456.515L713.879 456.512L714.147 456.51L714.409 456.509L714.666 456.507L714.916 456.505L715.161 456.503L715.399 456.501L715.632 456.5L715.858 456.498L716.079 456.496L716.294 456.494L716.502 456.492L716.705 456.491L716.902 456.49L717.092 456.489L717.277 456.487L717.456 456.485L717.628 456.484L717.795 456.483L717.956 456.481L718.11 456.48L718.259 456.48L718.401 456.479L718.538 456.477L718.669 456.476L718.793 456.475L718.912 456.474L719.024 456.473H719.13L719.231 456.472L719.325 456.471L719.413 456.471L719.495 456.47H719.571L719.641 456.469H719.705L719.763 456.468H719.815L719.861 456.467H719.901H719.934H719.962L719.983 456.466H719.998H720.007ZM720.017 700.095C720.6 699.402 720.599 699.401 720.597 699.4L720.587 699.392L720.549 699.36L720.54 699.352L720.46 699.286L720.4 699.236L720.289 699.143L720.163 699.039C720.063 698.957 719.946 698.861 719.811 698.75C719.289 698.323 718.509 697.69 717.473 696.865C715.4 695.214 712.304 692.796 708.205 689.72C700.006 683.567 687.792 674.782 671.722 664.243C639.582 643.163 592.013 615.064 530.281 586.966C406.815 530.77 226.688 474.58 0.0195312 474.58V476.391C226.384 476.391 406.256 532.505 529.53 588.614C591.168 616.67 638.656 644.723 670.729 665.757C686.765 676.275 698.947 685.037 707.118 691.169C711.203 694.234 714.285 696.642 716.344 698.281C717.374 699.102 718.148 699.729 718.664 700.151C718.922 700.363 719.115 700.523 719.243 700.63C719.295 700.672 719.336 700.707 719.367 700.732L719.388 700.749L719.423 700.779L719.432 700.786C719.432 700.786 719.433 700.787 719.476 700.736C719.537 700.666 719.679 700.497 720.017 700.095ZM720.404 597.84C720.407 597.841 720.408 597.842 720.017 598.659C719.626 599.475 719.626 599.475 719.624 599.475L719.615 599.47L719.58 599.454L719.435 599.385C719.307 599.324 719.113 599.234 718.855 599.113C718.643 599.014 718.388 598.897 718.089 598.759C717.907 598.675 717.708 598.583 717.493 598.486C717.203 598.353 716.884 598.208 716.535 598.05C714.475 597.117 711.392 595.748 707.306 594.004C699.134 590.518 686.949 585.535 670.909 579.554C638.83 567.592 591.331 551.639 529.679 535.684C406.373 503.776 226.451 471.863 0.0195312 471.863V470.051C226.621 470.051 406.698 501.988 530.132 533.931C591.85 549.902 639.408 565.875 671.542 577.857C687.609 583.848 699.82 588.841 708.017 592.339C712.115 594.087 715.21 595.461 717.282 596.4C718.318 596.868 719.098 597.228 719.62 597.471C719.767 597.54 719.893 597.599 719.999 597.649C720.081 597.687 720.151 597.72 720.209 597.747L720.357 597.817L720.395 597.835L720.404 597.84ZM720.017 517.147C720.186 516.258 720.185 516.257 720.183 516.257L720.173 516.255L720.136 516.248L719.989 516.22C719.858 516.196 719.662 516.159 719.402 516.111C718.882 516.015 718.103 515.872 717.069 515.686C715 515.314 711.908 514.769 707.813 514.075C699.622 512.687 687.418 510.705 671.358 508.326C639.239 503.57 591.697 497.228 529.998 490.887C406.6 478.204 226.57 465.523 0.0195312 465.523V467.334C226.503 467.334 406.47 480.012 529.813 492.689C591.484 499.027 638.999 505.365 671.093 510.118C687.14 512.494 699.331 514.475 707.51 515.861C711.599 516.554 714.685 517.098 716.748 517.468C717.371 517.581 717.901 517.677 718.337 517.756C718.623 517.809 718.868 517.854 719.073 517.892C719.332 517.94 719.526 517.977 719.655 518L719.8 518.028L719.836 518.034L719.845 518.036C719.847 518.036 719.848 518.037 720.017 517.147Z" fill="url(#paint0_linear_4006_1391)" style=""/>
<defs>
<linearGradient id="paint0_linear_4006_1391" x1="10.8864" y1="341.43" x2="706.812" y2="341.43" gradientUnits="userSpaceOnUse">
<stop offset="0.0182341" stop-color="#FD4B28" stop-opacity="0" style="stop-color:none;stop-opacity:0;"/>
<stop offset="0.127609" stop-color="#FD4B28" style="stop-color:#FD4B28;stop-color:color(display-p3 0.9922 0.2941 0.1569);stop-opacity:1;"/>
<stop offset="0.563305" stop-color="#FD4C28" stop-opacity="0.65" style="stop-color:#FD4C28;stop-color:color(display-p3 0.9922 0.2980 0.1569);stop-opacity:0.65;"/>
<stop offset="0.943305" stop-color="#FD4C28" stop-opacity="0" style="stop-color:none;stop-opacity:0;"/>
</linearGradient>
</defs>
</svg>
